<svg width="1332" height="284" viewBox="0 0 1332 284" fill="none" xmlns="http://www.w3.org/2000/svg">
<path d="M416.181 187.242C433.681 187.242 446.771 182.832 455.451 174.012C464.131 165.052 468.471 151.402 468.471 133.062C468.471 97.0822 451.041 79.0922 416.181 79.0922H389.511V187.242H416.181ZM365.571 58.0922H416.391C441.171 58.0922 460.211 64.5322 473.511 77.4122C486.811 90.2922 493.461 108.842 493.461 133.062C493.461 157.422 486.811 176.042 473.511 188.922C460.211 201.802 441.101 208.242 416.181 208.242H365.571V58.0922ZM590.596 142.302C589.476 132.922 586.256 125.502 580.936 120.042C575.756 114.442 568.686 111.642 559.726 111.642C550.626 111.642 543.346 114.442 537.886 120.042C532.426 125.502 528.996 132.922 527.596 142.302H590.596ZM503.026 151.332C503.026 142.512 504.356 134.462 507.016 127.182C509.676 119.762 513.456 113.462 518.356 108.282C523.396 103.102 529.346 99.1122 536.206 96.3122C543.206 93.3722 550.976 91.9022 559.516 91.9022C567.916 91.9022 575.476 93.3022 582.196 96.1022C589.056 98.7622 594.866 102.612 599.626 107.652C604.526 112.692 608.236 118.782 610.756 125.922C613.416 132.922 614.746 140.762 614.746 149.442V158.262H527.386C528.506 168.342 531.866 176.392 537.466 182.412C543.066 188.292 550.556 191.232 559.936 191.232C567.076 191.232 573.026 189.552 577.786 186.192C582.546 182.692 586.046 177.862 588.286 171.702H613.276C610.056 183.742 603.686 193.332 594.166 200.472C584.786 207.472 573.306 210.972 559.726 210.972C551.186 210.972 543.416 209.572 536.416 206.772C529.416 203.832 523.396 199.772 518.356 194.592C513.456 189.272 509.676 182.972 507.016 175.692C504.356 168.272 503.026 160.152 503.026 151.332ZM711.953 142.302C710.833 132.922 707.613 125.502 702.293 120.042C697.113 114.442 690.043 111.642 681.083 111.642C671.983 111.642 664.703 114.442 659.243 120.042C653.783 125.502 650.353 132.922 648.953 142.302H711.953ZM624.383 151.332C624.383 142.512 625.713 134.462 628.373 127.182C631.033 119.762 634.813 113.462 639.713 108.282C644.753 103.102 650.703 99.1122 657.563 96.3122C664.563 93.3722 672.333 91.9022 680.873 91.9022C689.273 91.9022 696.833 93.3022 703.553 96.1022C710.413 98.7622 716.223 102.612 720.983 107.652C725.883 112.692 729.593 118.782 732.113 125.922C734.773 132.922 736.103 140.762 736.103 149.442V158.262H648.743C649.863 168.342 653.223 176.392 658.823 182.412C664.423 188.292 671.913 191.232 681.293 191.232C688.433 191.232 694.383 189.552 699.143 186.192C703.903 182.692 707.403 177.862 709.643 171.702H734.633C731.413 183.742 725.043 193.332 715.523 200.472C706.143 207.472 694.663 210.972 681.083 210.972C672.543 210.972 664.773 209.572 657.773 206.772C650.773 203.832 644.753 199.772 639.713 194.592C634.813 189.272 631.033 182.972 628.373 175.692C625.713 168.272 624.383 160.152 624.383 151.332ZM771.99 151.752C771.99 164.072 774.79 173.662 780.39 180.522C786.13 187.382 794.04 190.812 804.12 190.812C814.2 190.812 821.9 187.452 827.22 180.732C832.54 174.012 835.2 164.282 835.2 151.542C835.2 138.942 832.54 129.282 827.22 122.562C821.9 115.702 814.2 112.272 804.12 112.272C794.04 112.272 786.13 115.772 780.39 122.772C774.79 129.772 771.99 139.432 771.99 151.752ZM770.31 94.6322L770.94 113.742C774.44 106.462 779.69 101.002 786.69 97.3622C793.69 93.7222 801.32 91.9022 809.58 91.9022C817 91.9022 823.79 93.3722 829.95 96.3122C836.11 99.1122 841.36 103.102 845.7 108.282C850.04 113.462 853.4 119.692 855.78 126.972C858.16 134.252 859.35 142.372 859.35 151.332C859.35 160.292 858.16 168.412 855.78 175.692C853.4 182.972 850.04 189.272 845.7 194.592C841.36 199.772 836.11 203.832 829.95 206.772C823.79 209.572 817 210.972 809.58 210.972C801.18 210.972 793.69 209.222 787.11 205.722C780.53 202.082 775.49 196.902 771.99 190.182V246.672H748.68V94.6322H770.31ZM889.118 170.652C889.678 177.372 892.338 182.622 897.098 186.402C901.858 190.182 908.928 192.072 918.308 192.072C925.168 192.072 930.978 190.882 935.738 188.502C940.498 185.982 942.878 182.062 942.878 176.742C942.878 173.802 942.108 171.422 940.568 169.602C939.028 167.782 936.858 166.312 934.058 165.192C931.398 163.932 928.178 162.952 924.398 162.252C920.618 161.552 916.488 160.852 912.008 160.152C906.968 159.312 901.788 158.332 896.468 157.212C891.288 155.952 886.598 154.132 882.398 151.752C878.198 149.372 874.698 146.292 871.898 142.512C869.238 138.592 867.908 133.482 867.908 127.182C867.908 116.682 871.968 108.212 880.088 101.772C888.348 95.1922 899.828 91.9022 914.528 91.9022C922.368 91.9022 929.228 92.8822 935.108 94.8422C941.128 96.8022 946.238 99.5322 950.438 103.032C954.638 106.392 957.928 110.452 960.308 115.212C962.828 119.972 964.368 125.152 964.928 130.752H941.198C940.498 124.452 937.768 119.552 933.008 116.052C928.248 112.552 921.948 110.802 914.108 110.802C906.828 110.802 901.298 112.202 897.518 115.002C893.878 117.802 892.058 121.232 892.058 125.292C892.058 128.092 892.828 130.402 894.368 132.222C896.048 134.042 898.218 135.582 900.878 136.842C903.538 137.962 906.688 138.872 910.328 139.572C913.968 140.272 917.748 140.972 921.668 141.672C927.128 142.652 932.518 143.772 937.838 145.032C943.298 146.152 948.198 147.972 952.538 150.492C956.878 152.872 960.378 156.022 963.038 159.942C965.698 163.862 967.028 169.042 967.028 175.482C967.028 181.502 965.768 186.752 963.248 191.232C960.868 195.572 957.508 199.212 953.168 202.152C948.828 205.092 943.648 207.262 937.628 208.662C931.748 210.202 925.308 210.972 918.308 210.972C910.048 210.972 902.698 209.992 896.258 208.032C889.818 206.072 884.288 203.342 879.668 199.842C875.188 196.202 871.688 191.932 869.168 187.032C866.788 182.132 865.458 176.672 865.178 170.652H889.118ZM978.284 94.6322H1001.59V208.242H978.284V94.6322ZM977.654 55.1522H1002.43V80.1422H977.654V55.1522ZM1039.01 147.972C1039.01 159.592 1041.67 168.482 1046.99 174.642C1052.45 180.802 1060.15 183.882 1070.09 183.882C1080.17 183.882 1088.08 180.732 1093.82 174.432C1099.56 168.132 1102.43 159.312 1102.43 147.972C1102.43 136.632 1099.56 127.812 1093.82 121.512C1088.08 115.072 1080.17 111.852 1070.09 111.852C1060.15 111.852 1052.45 115.002 1046.99 121.302C1041.67 127.462 1039.01 136.352 1039.01 147.972ZM1043.21 207.192C1044.05 214.472 1047.27 220.002 1052.87 223.782C1058.47 227.562 1065.12 229.452 1072.82 229.452C1077.16 229.452 1081.15 228.822 1084.79 227.562C1088.43 226.302 1091.51 224.342 1094.03 221.682C1096.69 219.022 1098.72 215.592 1100.12 211.392C1101.66 207.192 1102.43 202.222 1102.43 196.482V183.042C1098.93 189.762 1093.82 194.942 1087.1 198.582C1080.38 202.082 1072.82 203.832 1064.42 203.832C1057.14 203.832 1050.42 202.502 1044.26 199.842C1038.24 197.182 1033.06 193.402 1028.72 188.502C1024.38 183.462 1021.02 177.512 1018.64 170.652C1016.26 163.792 1015.07 156.162 1015.07 147.762C1015.07 139.362 1016.26 131.732 1018.64 124.872C1021.02 118.012 1024.31 112.132 1028.51 107.232C1032.85 102.332 1038.03 98.5522 1044.05 95.8922C1050.21 93.2322 1056.93 91.9022 1064.21 91.9022C1072.75 91.9022 1080.52 93.7222 1087.52 97.3622C1094.66 101.002 1099.91 106.462 1103.27 113.742L1103.9 94.6322H1125.74V195.852C1125.74 205.232 1124.41 213.212 1121.75 219.792C1119.09 226.512 1115.38 231.972 1110.62 236.172C1106 240.512 1100.4 243.662 1093.82 245.622C1087.38 247.722 1080.31 248.772 1072.61 248.772C1066.03 248.772 1059.66 248.002 1053.5 246.462C1047.48 244.922 1042.02 242.472 1037.12 239.112C1032.36 235.752 1028.37 231.412 1025.15 226.092C1022.07 220.912 1020.11 214.612 1019.27 207.192H1043.21ZM1141.21 53.8922H1164.94V111.852C1168.16 105.272 1172.78 100.302 1178.8 96.9422C1184.96 93.5822 1192.1 91.9022 1200.22 91.9022C1212.68 91.9022 1222.55 95.7522 1229.83 103.452C1237.11 111.012 1240.75 121.582 1240.75 135.162V208.242H1217.02V143.142C1217.02 122.702 1209.11 112.482 1193.29 112.482C1184.61 112.482 1177.68 115.212 1172.5 120.672C1167.46 126.132 1164.94 133.622 1164.94 143.142V208.242H1141.21V53.8922ZM1262.67 114.792H1244.61V94.6322H1262.67V65.8622H1286.4V94.6322H1326.51V114.792H1286.4V168.762C1286.4 176.742 1288.15 182.272 1291.65 185.352C1295.15 188.432 1300.96 189.972 1309.08 189.972C1311.46 189.972 1314.12 189.832 1317.06 189.552C1320.14 189.272 1323.29 188.782 1326.51 188.082V208.452C1322.03 209.152 1317.83 209.712 1313.91 210.132C1309.99 210.552 1306.35 210.762 1302.99 210.762C1289.27 210.762 1279.12 207.402 1272.54 200.682C1265.96 193.962 1262.67 183.392 1262.67 168.972V114.792Z" fill="#0C0C22"/>
<path fill-rule="evenodd" clip-rule="evenodd" d="M186.81 276.019L151.888 192.006C158.422 190.647 164.498 188.028 169.857 184.413L204.822 268.532L186.81 276.019ZM184.135 169.921L268.419 204.9L275.893 186.882L191.517 151.864C190.209 158.42 187.663 164.526 184.135 169.921ZM191.534 131.584L275.974 96.7102L268.526 78.6802L184.183 113.514C187.701 118.915 190.237 125.024 191.534 131.584ZM169.818 98.9223L204.709 14.7734L186.688 7.30202L151.842 91.3467C158.377 92.6993 164.456 95.3123 169.818 98.9223ZM131.175 91.3563L96.2534 7.34399L78.2403 14.8315L113.207 98.9483C118.565 95.3332 124.642 92.7149 131.175 91.3563ZM98.9301 113.439L14.6468 78.4602L7.16964 96.4774L91.5475 131.495C92.8559 124.939 95.4023 118.834 98.9301 113.439ZM91.5296 151.78L7.09341 186.653L14.5392 204.682L98.8818 169.849C95.3628 164.448 92.8265 158.34 91.5296 151.78ZM113.245 184.44L78.3556 268.587L96.375 276.058L131.221 192.015C124.686 190.662 118.607 188.05 113.245 184.44ZM203.362 94.2062C199.419 88.9976 194.842 84.3018 189.748 80.2359L235.188 35.261L248.908 49.1252L203.362 94.2062ZM218.662 151.434H282.958V131.927H218.661C219.055 135.122 219.258 138.378 219.258 141.681C219.258 144.984 219.055 148.239 218.662 151.434ZM189.356 203.436C194.477 199.402 199.084 194.735 203.06 189.552L248.314 234.921L234.503 248.699L189.356 203.436ZM131.681 219.393L131.601 283.094L151.108 283.12L151.189 219.417C148.025 219.812 144.802 220.016 141.532 220.016C138.195 220.016 134.908 219.804 131.681 219.393ZM47.8772 248.101L93.3166 203.127C88.2224 199.061 83.6453 194.366 79.7016 189.157L34.1546 234.238L47.8772 248.101ZM64.4024 131.927H0.105469V151.434H64.4019C64.0082 148.239 63.8056 144.984 63.8056 141.681C63.8056 138.378 64.0087 135.122 64.4024 131.927ZM93.7094 79.9237C88.5881 83.9576 83.9815 88.6242 80.0051 93.807L34.7509 48.4377L48.5618 34.6613L93.7094 79.9237ZM151.385 63.9698L151.467 0.266793L131.959 0.242188L131.878 63.9444C135.041 63.5495 138.263 63.3462 141.532 63.3462C144.87 63.3462 148.158 63.5582 151.385 63.9698Z" fill="#0C0C22"/>
</svg>
