<svg width="513" height="513" viewBox="0 0 513 513" fill="none" xmlns="http://www.w3.org/2000/svg">
<path fill-rule="evenodd" clip-rule="evenodd" d="M338.425 499.606L275.211 347.531C287.038 345.072 298.037 340.332 307.738 333.788L371.029 486.053L338.425 499.606ZM333.582 307.554L486.147 370.871L499.677 338.256L346.945 274.869C344.577 286.737 339.969 297.789 333.582 307.554ZM346.975 238.159L499.824 175.034L486.341 142.397L333.669 205.451C340.038 215.227 344.628 226.286 346.975 238.159ZM307.667 179.038L370.824 26.7174L338.203 13.1933L275.128 165.325C286.958 167.773 297.961 172.503 307.667 179.038ZM237.718 165.343L174.505 13.2693L141.899 26.8227L205.193 179.085C214.892 172.541 225.892 167.802 237.718 165.343ZM179.35 205.315L26.7866 141.999L13.2519 174.612L165.987 237.999C168.355 226.131 172.965 215.081 179.35 205.315ZM165.954 274.717L13.1139 337.841L26.5918 370.476L179.263 307.425C172.893 297.649 168.302 286.591 165.954 274.717ZM205.262 333.836L142.108 486.153L174.725 499.677L237.8 347.548C225.971 345.1 214.968 340.37 205.262 333.836ZM368.386 170.501C361.248 161.073 352.964 152.573 343.742 145.213L425.995 63.8027L450.831 88.8987L368.386 170.501ZM396.08 274.091H512.465V238.78H396.079C396.792 244.565 397.159 250.458 397.159 256.437C397.159 262.415 396.793 268.307 396.08 274.091ZM343.033 368.222C352.303 360.92 360.643 352.472 367.84 343.09L449.754 425.213L424.754 450.154L343.033 368.222ZM238.634 397.105L238.489 512.412L273.798 512.459L273.945 397.149C268.218 397.864 262.384 398.233 256.465 398.233C250.425 398.233 244.474 397.849 238.634 397.105ZM86.9379 449.071L169.189 367.662C159.968 360.302 151.683 351.803 144.544 342.374L62.0982 423.977L86.9379 449.071ZM116.851 238.78H0.464844V274.091H116.85C116.137 268.307 115.77 262.415 115.77 256.437C115.77 250.458 116.138 244.565 116.851 238.78ZM169.9 144.648C160.63 151.95 152.291 160.397 145.094 169.779L63.1776 87.6543L88.1771 62.7172L169.9 144.648ZM274.301 115.769L274.448 0.458602L239.137 0.414062L238.991 115.723C244.716 115.009 250.548 114.641 256.465 114.641C262.507 114.641 268.46 115.024 274.301 115.769Z" fill="#0C0C22"/>
</svg>
