<svg xmlns="http://www.w3.org/2000/svg" viewBox="0 0 441.96 441.96"><defs><style>.cls-1{fill:#191f24;}.cls-2{fill:#51bb7b;}.cls-3{fill:#19466b;}.cls-4{fill:#226094;}.cls-5{fill:#ff2e2e;}.cls-6{fill:#1a5587;}.cls-7{fill:#b52020;}.cls-8{fill:#13334f;}</style></defs><title>Adfinger profile</title><g id="Layer_2" data-name="Layer 2"><g id="Layer_1-2" data-name="Layer 1"><path class="cls-1" d="M442,221v.48a220.08,220.08,0,0,1-54.32,144.63l-.2.23c-1.12,1.28-2.25,2.56-3.4,3.81a219.7,219.7,0,0,1-20.15,19.4l-.21.18c-.91.77-1.81,1.52-2.73,2.27a219.94,219.94,0,0,1-103.29,46.95,223.53,223.53,0,0,1-73.36,0,219.53,219.53,0,0,1-84.67-33.24l-2.13-1.41-.22-.15q-8.34-5.65-16.13-12c-.91-.74-1.82-1.5-2.72-2.27l-.21-.18A220.42,220.42,0,0,1,0,221.46V221C0,98.93,98.93,0,221,0S442,98.93,442,221Z"/><path class="cls-2" d="M408.33,219.5C408.33,323,324.45,406.86,221,406.86S33.62,323,33.62,219.5,117.5,32.14,221,32.14,408.33,116,408.33,219.5Z"/><path class="cls-1" d="M387.44,366.32c-1.12,1.28-2.25,2.56-3.4,3.81a219.7,219.7,0,0,1-20.15,19.4l-.21.18c-.91.77-1.81,1.52-2.73,2.27a219.94,219.94,0,0,1-103.29,46.95,223.53,223.53,0,0,1-73.36,0,219.53,219.53,0,0,1-84.67-33.24l-2.13-1.41,9.32-36.2,18.73-72.74c.18-.7.37-1.39.57-2.08A66.86,66.86,0,0,1,140.83,267c1.11-1.23,2.26-2.41,3.47-3.55a66.92,66.92,0,0,1,17.45-12l4.6-2.18c-12.27-12.16-24.12-26.08-30.52-39.46a51.63,51.63,0,0,1-4.27-12.4,115.88,115.88,0,0,0,17-1.22h0a202.66,202.66,0,0,0,38.2-9q3.93-1.32,8-2.89h0q2.29-.87,4.65-1.83l.23-.18q-3.21-.19-6.31-.42c-5.79-.41-11.29-.89-16.45-1.43-18.47-1.93-32.56-4.6-39.85-7.68-3.6-1.53-5.55-3.15-5.55-4.84,0-5.21,18.48-9.82,47-12.69,7.81-.79,16.37-1.44,25.51-1.94.73-11.19,2.21-28.89,4.88-42.94,2.12-11.21,5-20.1,8.86-21.5,10.06-3.68,16.59,9.91,29,9.91s18.91-13.59,29-9.91c8.69,3.17,12.42,44.32,13.74,64.44,42.45,2.32,72.46,8,72.46,14.63,0,4.19-12,8-31.52,10.82,0,0,0,0,0,0-10,1.45-22.05,2.63-35.46,3.48l.58.25a218.35,218.35,0,0,0,26.63,8.92h0c24.83,6.56,41.29,6,41.29,6-3.26,16.88-18.71,36-34.87,52l4.41,2.09a67,67,0,0,1,36.21,43.85l7.36,28.6Z"/><path class="cls-1" d="M363.68,389.71c-.91.77-1.81,1.52-2.73,2.27a219.94,219.94,0,0,1-103.29,46.95,223.53,223.53,0,0,1-73.36,0,219.53,219.53,0,0,1-84.67-33.24l-2.13-1.41-.22-.15q-8.34-5.65-16.13-12c-.91-.74-1.82-1.5-2.72-2.27l1.22-4.74,8.59-33.36h0l10.21-39.67a67.41,67.41,0,0,1,36.44-44.14l4.63-2.19,4.78-2.27.78-.37,26.1-12.36,1.71-52.29.21-.17,13.71-11.07,4.07-3.28,2.53-2,11.5-9.28,5.69-4.6,10.41-8.4h.11L231.54,168l5.62,4.53h0l10.29,8.31h0l3.65,2.94,1.41,1.14L269,198.19l.3.24.16,4.76v.05L271,250.72l31.84,15.09,4.44,2.1a67.45,67.45,0,0,1,36.45,44.14l10.17,39.52Z"/><path class="cls-3" d="M353.82,351.62l-10.19-39.57a67.41,67.41,0,0,0-36.44-44.14l-4.4-2.09L297,263.08l-15.52,10.51,8.78,4,5.19,2.35a80.87,80.87,0,0,1,41.46,43l13.25,32.31,12.27,29.9ZM145.08,263.08l-.78.37-4.78,2.27-4.63,2.19a67.41,67.41,0,0,0-36.44,44.14L88.24,351.72h0l-8.59,33.36,12.23-29.81,13.29-32.4a80.86,80.86,0,0,1,41.46-43l5.4-2.45h0l8.56-3.87Z"/><path class="cls-4" d="M336.38,183.78c0,8.76-51.91,15.86-115.94,15.86s-115.93-7.1-115.93-15.86,51.9-15.85,115.93-15.85,115.94,7.1,115.94,15.85Z"/><path class="cls-4" d="M249.6,104.19c-10.12-3.7-16.7,10-29.16,10s-19-13.68-29.16-10c-11.61,4.25-14.44,75.87-14.44,75.87,0,2.9,19.52,5.24,43.6,5.24S264,183,264,180.06c0,0-2.83-71.62-14.44-75.87Z"/><path class="cls-5" d="M177.44,169.2c-.43,6.56-.6,10.86-.6,10.86,0,2.9,19.52,5.24,43.6,5.24S264,183,264,180.06c0,0-.17-4.3-.6-10.86-6,2.16-23,3.72-43,3.72s-37-1.56-43-3.72Z"/><path class="cls-6" d="M263.43,169.06c-1.32-20.26-5.09-61.67-13.83-64.87-4.43-1.62-8.18.09-12,2.52,0,0,10.4,22.65,9.88,77.47l63.89,9.44c15.67-2.71,25.05-6.12,25.05-9.84,0-6.68-30.21-12.39-72.95-14.72Z"/><path class="cls-7" d="M247.36,171.85c.08,3.92.12,8,.08,12.33,10.11-1,16.6-2.45,16.6-4.11,0,0-.17-4.31-.6-10.87-3,1.07-8.67,2-16.08,2.65Z"/><path class="cls-3" d="M247.13,207.68a12.84,12.84,0,0,1-12.52.59,31.23,31.23,0,0,0-28.34,0,12.82,12.82,0,0,1-12.51-.59l-15-9.25c2.35,54,41.64,69.7,41.64,69.7s39.29-15.7,41.64-69.7Z"/><polygon points="221.07 212.66 213.73 225.8 221.07 231.26 221.07 212.66"/><path class="cls-4" d="M172.89,198.43s.46,31.79,22.86,72.43C225.11,324.1,221,390,221,430.94c0,0-14.68-103.77-68.94-130.73a161.35,161.35,0,0,1,29.35,1s-69.52-49.49-76.91-87.71c0,0,29.12.89,68.38-15.09Z"/><path class="cls-4" d="M337.9,213.51s-29.12.9-68.37-15.08c0,0,1.26,32.79-22.87,72.43a367,367,0,0,0-25.86,51.67c1.59,12.24,3.81,30.91,4.95,47.69,16.68-27.81,39.14-57.36,64.6-70a161.46,161.46,0,0,0-29.36,1s69.52-49.49,76.91-87.72Z"/><path class="cls-8" d="M234.61,208.27a31.1,31.1,0,0,0-13.4-3.37v62.89c5.41-2.49,38.72-19.76,40.87-69.36l-14.95,9.25a12.84,12.84,0,0,1-12.52.59Z"/></g></g></svg>